<?xml version="1.0" standalone="no"?>
<!DOCTYPE svg PUBLIC "-//W3C//DTD SVG 20010904//EN"
 "http://www.w3.org/TR/2001/REC-SVG-20010904/DTD/svg10.dtd">
<svg version="1.0" xmlns="http://www.w3.org/2000/svg"
 width="800.000000pt" height="800.000000pt" viewBox="0 0 800.000000 800.000000"
 preserveAspectRatio="xMidYMid meet">
<metadata>
Created by potrace 1.14, written by Peter Selinger 2001-2017
</metadata>
<g transform="translate(0.000000,800.000000) scale(0.100000,-0.100000)"
fill="#000000" stroke="none">
<path d="M3791 6577 c-6 -6 -11 -39 -11 -73 0 -56 3 -65 26 -83 15 -12 33 -21
40 -21 19 0 56 -90 49 -118 -4 -15 1 -34 11 -50 25 -39 15 -149 -17 -184 -24
-26 -27 -26 -106 -19 -45 3 -85 9 -88 12 -9 9 6 40 16 33 5 -3 7 -9 5 -13 -3
-4 0 -8 7 -8 7 0 20 -4 30 -8 20 -8 22 4 4 29 -11 16 -24 17 -110 10 -85 -6
-97 -9 -97 -25 0 -13 -7 -19 -21 -19 -11 0 -18 4 -15 9 4 5 -3 7 -14 4 -28 -7
-34 -20 -13 -27 10 -3 30 -27 45 -53 53 -95 107 -119 288 -129 l118 -7 6 -51
c12 -98 6 -197 -19 -322 -31 -157 -31 -211 0 -371 55 -285 57 -374 15 -701
-17 -130 -35 -273 -41 -316 -6 -48 -16 -84 -25 -90 -8 -7 -16 -33 -18 -64 -5
-73 -18 -83 -57 -46 -17 16 -38 44 -45 62 -14 31 -29 47 -18 17 9 -23 -19 -18
-34 5 -7 12 -17 18 -22 15 -17 -11 -11 -22 20 -35 24 -10 28 -15 19 -26 -6 -8
-18 -14 -25 -14 -8 0 -11 -6 -8 -15 5 -12 9 -11 23 7 12 15 20 18 25 10 4 -7
4 -12 -1 -12 -9 0 61 -44 95 -59 12 -6 22 -15 22 -21 0 -13 -13 -13 -26 0 -13
13 -44 2 -44 -15 0 -7 -7 -18 -15 -25 -20 -16 -19 -84 1 -104 24 -25 29 -20
29 31 0 40 4 49 24 59 20 10 30 10 52 -2 32 -16 63 -20 39 -4 -8 5 -10 10 -5
10 6 0 3 5 -5 10 -11 7 -11 10 -2 10 7 0 11 4 8 9 -3 5 1 11 9 15 24 9 17 26
-10 26 -27 0 -28 5 -25 75 1 23 9 48 19 58 17 18 19 18 62 -6 39 -22 44 -29
44 -60 0 -41 35 -76 71 -69 l23 4 -19 36 c-17 31 -17 37 -5 56 23 32 19 36
-40 36 -44 0 -56 4 -65 20 -6 12 -16 17 -26 13 -9 -3 -19 -1 -23 5 -4 6 8 139
26 294 42 354 42 551 -1 791 -32 180 -32 221 -4 362 14 75 21 150 22 238 0
113 2 127 18 127 9 0 20 -5 23 -11 4 -5 5 -76 4 -157 -7 -298 -5 -426 9 -440
6 -7 12 -29 12 -48 0 -40 19 -47 21 -6 3 69 5 77 14 85 7 6 6 10 -1 13 -7 3
-8 23 -3 62 4 31 4 91 -2 132 -5 41 -9 95 -8 120 1 25 -2 76 -6 114 -6 57 -5
67 6 60 12 -7 12 -5 0 9 -18 22 -6 67 17 67 16 0 18 -12 18 -122 0 -91 6 -152
23 -233 28 -132 29 -212 3 -365 -11 -63 -23 -142 -27 -175 -11 -88 -8 -343 5
-434 6 -44 10 -83 9 -87 -1 -5 0 -16 3 -24 10 -27 39 -263 40 -328 1 -35 5
-65 9 -67 4 -3 6 -37 4 -75 -2 -50 0 -70 8 -67 17 5 20 72 6 99 -11 21 -11 22
4 9 11 -9 17 -29 17 -60 0 -33 3 -42 10 -31 8 12 10 12 10 1 0 -10 3 -11 14
-2 10 9 16 9 21 1 4 -6 4 -14 1 -17 -3 -4 -6 0 -6 8 0 8 -3 10 -8 4 -12 -17
-47 -41 -38 -27 4 7 2 12 -4 12 -18 0 -50 -20 -50 -31 0 -6 4 -8 9 -4 5 3 17
-2 26 -12 14 -14 18 -14 26 -2 8 11 9 10 7 -6 -2 -16 3 -20 25 -21 37 -1 47
-18 45 -76 -2 -41 -5 -48 -28 -53 -26 -7 -328 -7 -413 0 -27 2 -45 0 -42 -6 4
-5 13 -9 21 -9 9 0 14 -10 14 -29 0 -36 10 -40 127 -47 104 -7 202 3 168 17
-16 6 -17 8 -3 8 9 1 19 -3 23 -8 7 -13 66 -11 83 2 6 5 12 20 12 34 0 17 8
27 28 34 16 5 29 15 30 22 0 7 4 29 8 49 4 27 2 44 -9 61 -8 13 -13 35 -10 52
3 17 6 45 8 63 1 18 5 35 9 39 14 14 5 24 -11 12 -16 -13 -17 -12 -4 4 11 14
17 15 30 5 9 -7 13 -8 9 -4 -4 5 11 31 33 57 23 27 35 49 28 49 -8 0 -6 7 6
20 10 11 15 23 12 26 -8 8 -37 -14 -37 -28 0 -5 -25 -39 -55 -74 -31 -37 -52
-71 -49 -77 4 -7 3 -9 -1 -4 -5 4 -17 0 -27 -10 -23 -20 -32 -12 -35 34 -1 19
-9 43 -17 52 -11 12 -28 110 -57 342 -37 293 -41 338 -36 474 4 99 15 196 31
284 32 165 33 259 4 371 -18 69 -22 113 -23 237 0 83 2 154 5 157 3 3 48 8
100 11 221 12 250 23 292 100 15 27 25 52 22 54 -2 2 8 13 23 23 l28 18 -37 0
c-28 0 -36 4 -32 14 8 21 -27 27 -213 33 l-171 6 -6 30 c-10 47 -6 81 10 102
9 12 12 30 8 48 -9 41 24 114 59 128 15 7 34 21 42 33 17 24 20 93 5 131 -10
25 -13 26 -53 19 -117 -20 -188 -20 -349 -1 -20 3 -41 0 -47 -6z m349 -587 c0
-8 44 -5 58 4 26 16 33 -6 10 -31 l-23 -25 27 -23 c34 -29 20 -36 -56 -26 -31
4 -56 5 -56 2 0 -4 -19 -5 -42 -4 -33 2 -38 1 -23 -6 15 -7 4 -10 -45 -12 -36
-1 -84 -3 -107 -5 -24 -2 -45 1 -48 7 -4 5 2 9 13 9 10 0 29 11 42 25 13 14
29 24 35 21 7 -2 27 -1 46 4 33 8 33 8 -13 9 -36 1 -50 6 -58 20 -8 15 -7 22
4 28 16 9 236 11 236 3z"/>
<path d="M4026 4939 c-2 -8 -7 -219 -11 -469 -5 -412 -8 -456 -23 -468 -15
-11 -10 -13 33 -10 43 3 50 6 47 22 -2 10 2 23 10 27 9 6 9 9 1 9 -8 0 -12 28
-12 93 0 50 -5 155 -11 232 -5 77 -12 237 -15 355 -6 205 -9 240 -19 209z"/>
<path d="M5098 4529 c-26 -4 -60 -14 -75 -21 -55 -29 -108 -60 -124 -74 -8 -8
-24 -14 -35 -15 -17 0 -17 -1 4 -16 12 -8 22 -21 22 -28 0 -7 6 -18 14 -25 8
-6 12 -19 9 -27 -4 -10 -2 -14 4 -10 7 4 10 0 8 -10 -2 -10 -4 -20 -4 -22 -1
-3 -8 4 -17 15 -8 10 -13 14 -10 7 8 -15 -5 -23 -44 -28 -21 -2 -33 1 -37 11
-6 17 -33 19 -33 2 0 -7 4 -19 9 -27 10 -15 -18 -51 -33 -43 -5 3 -6 0 -2 -6
13 -22 -5 -34 -24 -17 -15 14 -21 14 -39 3 -26 -16 -58 1 -53 28 3 18 3 18
-11 0 -13 -17 -12 -22 4 -40 24 -25 24 -48 1 -69 -22 -20 -42 -22 -42 -5 0 6
-3 8 -6 5 -4 -3 -15 -2 -26 4 -13 7 -17 17 -13 32 6 21 5 21 -9 3 -14 -17 -13
-22 6 -48 17 -25 18 -32 7 -39 -11 -7 -10 -9 6 -10 11 0 14 -3 7 -6 -6 -2 -9
-10 -5 -16 4 -6 0 -8 -10 -4 -11 4 -17 1 -17 -8 0 -9 -9 -15 -21 -15 -23 0
-72 34 -62 44 3 3 1 6 -5 6 -7 0 -9 -13 -5 -37 4 -26 3 -34 -5 -29 -7 4 -12 2
-12 -4 0 -6 10 -8 24 -4 14 3 32 1 42 -4 14 -8 27 -3 58 22 23 17 44 36 48 41
4 6 8 7 8 2 0 -10 62 22 72 37 4 6 6 17 3 23 -2 7 -1 12 3 12 32 -5 132 51
132 74 0 7 32 32 71 57 79 49 90 64 63 85 -18 13 -18 15 9 42 23 24 30 26 47
15 16 -10 26 -8 58 8 37 19 176 35 166 19 -2 -4 9 -10 26 -14 16 -4 30 -11 30
-16 0 -5 5 -9 10 -9 39 0 140 -147 156 -228 6 -32 35 -45 49 -22 3 5 12 7 20
3 20 -7 19 6 -2 29 -9 10 -11 18 -6 18 6 0 18 -11 26 -24 21 -31 6 -46 -46
-46 -30 0 -37 -3 -30 -12 24 -34 20 -324 -8 -446 -5 -24 -11 -60 -14 -80 -3
-20 -9 -50 -13 -67 -5 -16 -5 -42 -1 -58 4 -15 3 -25 -2 -22 -8 6 -12 -5 -25
-80 -14 -83 -21 -142 -29 -240 -4 -44 -10 -100 -14 -125 -8 -52 -6 -217 3
-274 14 -84 56 -207 92 -266 8 -14 18 -33 21 -42 3 -10 9 -18 14 -18 5 0 9 -6
9 -14 0 -8 3 -16 8 -18 4 -1 25 -25 46 -53 22 -27 114 -125 205 -216 91 -91
176 -176 188 -190 l22 -24 -237 1 c-227 1 -397 -7 -462 -21 -27 -6 -29 -9 -18
-23 11 -15 11 -15 -3 -4 -34 26 -137 -6 -188 -59 -37 -38 -40 -73 -12 -128 15
-29 32 -43 69 -59 113 -49 330 -77 594 -77 47 0 84 -3 81 -7 -2 -5 -15 -8 -29
-8 -24 0 -32 -14 -14 -25 6 -3 10 -12 10 -18 0 -7 -8 -2 -18 10 -18 23 -45 24
-164 8 -40 -5 -58 -12 -61 -24 -4 -14 -5 -14 -6 2 -1 24 -31 22 -31 -3 0 -11
7 -20 15 -20 8 0 15 -5 15 -10 0 -7 -6 -7 -20 0 -11 6 -20 17 -20 24 0 11 -20
13 -97 9 -53 -2 -104 -8 -113 -13 -13 -8 -13 -9 2 -10 19 0 32 -34 26 -71 -4
-31 -55 -40 -75 -13 -14 19 -28 12 -28 -14 0 -11 -10 -18 -27 -20 -23 -3 -28
1 -29 20 -1 13 -1 26 0 31 0 4 -3 7 -9 7 -5 0 -7 7 -4 15 8 21 -30 20 -51 -1
-8 -9 -31 -16 -49 -17 -26 -1 -33 -5 -29 -16 3 -9 12 -21 20 -27 20 -17 -8
-37 -41 -28 -21 5 -24 9 -15 20 9 11 8 18 -1 29 -7 8 -9 15 -4 16 12 1 -28 17
-43 18 -8 1 -13 -11 -13 -29 0 -31 -9 -37 -27 -19 -8 8 -13 7 -19 -2 -4 -7 -3
-14 4 -17 18 -6 -15 -34 -36 -30 -12 2 -19 16 -23 45 -8 66 -31 72 -43 12 -7
-37 -23 -59 -41 -59 -16 0 -46 45 -48 71 -2 25 -31 21 -35 -6 -2 -11 -13 -30
-25 -42 -11 -13 -17 -26 -13 -30 4 -4 43 -8 86 -8 52 0 83 -5 92 -13 7 -7 9
-13 3 -12 -30 6 -98 -1 -89 -9 14 -14 462 28 574 54 36 8 80 15 99 15 47 0
229 27 341 51 52 11 148 31 212 45 157 32 257 66 352 117 88 47 118 80 120
129 1 18 5 36 10 39 15 12 -4 61 -35 90 -30 28 -64 43 -171 74 -32 9 -58 20
-58 24 0 4 -13 23 -30 41 -16 18 -30 38 -30 43 0 5 -7 6 -16 3 -9 -3 -12 -2
-9 5 10 16 -80 100 -99 93 -12 -4 -15 -2 -10 9 3 8 1 18 -5 22 -6 3 -11 -1
-11 -9 0 -9 -8 -16 -17 -15 -11 0 -13 3 -5 6 25 10 10 44 -45 98 -42 42 -58
53 -66 43 -7 -10 -8 -9 -4 3 4 11 -20 43 -70 95 -123 130 -201 263 -219 374
-7 43 -12 47 -34 28 -11 -10 -11 -9 0 6 12 15 15 55 16 175 0 93 8 202 18 269
10 63 15 120 12 127 -3 8 -1 15 3 17 5 2 12 23 16 48 3 25 10 68 15 95 14 89
52 339 58 395 11 85 3 278 -10 286 -5 3 -6 10 -2 15 3 5 1 15 -4 22 -5 7 -14
33 -21 59 -6 26 -20 62 -30 80 -48 85 -56 98 -63 98 -4 0 -5 -7 -2 -15 8 -19
-24 -32 -39 -15 -9 10 -7 11 9 6 18 -6 22 -2 22 19 0 14 -5 28 -11 32 -6 3 -7
1 -3 -5 4 -7 2 -12 -3 -12 -6 0 -11 7 -11 15 0 8 -12 25 -26 38 -15 12 -32 27
-38 32 -45 41 -166 67 -248 54z m855 -2819 c54 -13 61 -28 16 -37 -19 -4 -34
-14 -37 -25 -4 -18 -5 -18 -18 -1 -7 10 -14 13 -14 8 0 -13 -373 -13 -439 0
-39 7 -44 6 -38 -8 4 -10 2 -17 -3 -17 -6 0 -10 6 -10 13 0 8 -18 19 -40 26
-61 18 -56 28 17 40 38 6 79 12 93 15 48 9 425 -3 473 -14z"/>
<path d="M4205 3399 c-39 -12 -233 -15 -264 -5 -15 5 -21 5 -17 -2 4 -7 -4 -8
-26 -1 -47 13 -68 11 -68 -6 0 -8 7 -15 15 -15 8 0 15 -4 15 -10 0 -5 -7 -7
-16 -3 -12 4 -15 1 -12 -13 4 -25 61 -33 203 -29 61 2 125 4 143 4 38 0 75 18
67 32 -4 5 -18 6 -33 3 -49 -13 -277 -16 -313 -5 l-34 11 33 -3 c18 -2 32 1
32 7 0 7 3 8 8 1 8 -12 192 -14 192 -2 0 5 8 6 18 3 17 -6 89 8 100 18 13 14
-15 23 -43 15z"/>
<path d="M4165 3215 l-59 -10 24 -17 c20 -14 21 -16 5 -11 -16 5 -18 4 -7 -8
6 -7 12 -22 12 -33 0 -19 22 -82 56 -163 16 -36 19 -137 4 -113 -5 8 -10 11
-9 5 0 -17 26 -129 34 -149 6 -15 5 -17 -5 -11 -8 5 -11 4 -6 -3 4 -6 12 -9
19 -6 12 4 57 -80 57 -106 0 -6 5 -10 11 -10 5 0 7 -5 3 -12 -5 -7 -15 5 -28
33 -17 38 -20 41 -24 21 -2 -13 4 -32 13 -42 10 -11 14 -24 9 -32 -4 -7 -4
-10 1 -6 4 4 15 2 23 -5 11 -8 14 -8 9 0 -4 6 -3 14 3 18 5 3 10 -2 10 -11 0
-9 16 -32 36 -49 35 -31 35 -32 10 -28 -14 3 -26 10 -26 15 0 5 -5 6 -10 3 -6
-4 -10 -3 -9 2 3 20 -2 34 -11 28 -6 -4 -8 -11 -5 -16 11 -16 -17 -9 -30 8
-11 15 -13 15 -24 -4 -6 -12 -9 -28 -6 -35 5 -12 14 -15 75 -21 14 -1 28 -6
32 -12 5 -6 8 -5 8 3 0 6 7 12 15 12 27 0 27 27 2 72 -32 53 -62 129 -92 230
-20 66 -35 183 -57 443 l-3 31 -60 -11z"/>
<path d="M3857 3213 c-3 -5 -9 -87 -12 -183 -8 -192 -23 -275 -80 -420 -40
-103 -60 -142 -68 -133 -4 3 -7 1 -7 -6 0 -7 -4 -9 -10 -6 -5 3 -10 -1 -10 -9
0 -11 8 -15 24 -14 14 1 23 5 20 9 -2 4 0 10 6 14 5 3 10 1 10 -4 0 -6 12 -11
26 -11 14 0 23 -4 19 -10 -8 -13 1 -13 27 1 16 8 23 8 30 -2 8 -11 9 -10 4 4
-7 22 10 22 30 -2 19 -21 92 -21 105 1 7 10 9 10 9 1 0 -21 38 -15 50 7 8 16
8 20 -4 20 -8 0 -22 8 -32 17 -13 13 -19 14 -22 5 -5 -16 -39 -16 -45 1 -3 9
-9 8 -23 -4 -29 -24 -54 -31 -54 -14 0 8 -4 15 -10 15 -5 0 -10 -5 -10 -12 0
-6 -3 -8 -6 -5 -4 4 -1 13 6 22 7 9 10 19 6 23 -4 4 -13 0 -19 -8 -7 -8 -24
-16 -39 -16 -23 -2 -25 0 -13 12 7 8 19 14 25 14 7 0 10 7 6 15 -3 8 -1 15 4
15 6 0 10 -6 11 -12 1 -7 4 -3 7 10 4 13 10 23 15 23 4 -1 15 -1 25 -1 18 0
24 -31 9 -46 -4 -4 -7 -16 -7 -26 0 -15 4 -17 18 -9 13 7 22 32 31 88 7 43 19
107 26 143 12 60 18 117 16 148 -2 25 -19 11 -24 -20 -3 -18 -12 -76 -22 -128
-9 -52 -17 -104 -18 -114 -1 -12 -10 -20 -25 -21 -20 -2 -22 2 -16 28 4 19 3
27 -4 23 -6 -3 -13 -20 -17 -36 -4 -17 -11 -30 -16 -30 -13 0 -3 35 22 78 10
18 19 43 19 55 0 17 2 19 9 8 8 -12 11 -9 16 12 4 15 5 34 2 42 -4 8 -2 17 3
20 5 3 7 31 4 64 -6 52 -4 59 13 63 13 4 19 15 21 41 1 20 9 52 18 72 8 20 12
40 9 46 -10 15 5 48 24 54 24 7 53 -4 44 -18 -4 -6 0 -8 11 -4 10 4 16 2 15
-6 -3 -23 1 -37 11 -37 6 0 10 8 10 18 1 13 4 11 15 -8 14 -25 14 -25 15 15 0
22 1 56 2 75 3 31 0 35 -24 38 -15 2 -36 -2 -48 -8 -11 -6 -20 -7 -20 -1 0 15
-134 38 -143 24z"/>
<path d="M4112 2481 c2 -9 11 -15 21 -13 17 3 17 2 2 -22 -17 -25 -17 -25 12
-21 15 2 38 6 50 9 16 3 20 1 16 -10 -3 -8 -9 -14 -15 -14 -5 0 -6 -4 -3 -10
3 -5 -3 -10 -14 -10 -10 0 -22 6 -24 13 -3 7 -6 5 -6 -5 -1 -16 -3 -16 -22 3
-21 21 -50 22 -56 2 -3 -7 6 -15 19 -18 19 -5 24 -13 24 -41 0 -19 -4 -34 -8
-34 -5 0 -4 -9 2 -20 9 -16 8 -18 -5 -14 -15 6 -19 17 -16 41 1 8 -5 10 -14 7
-8 -3 -15 -1 -15 6 0 6 4 9 8 6 4 -2 14 -1 21 4 16 9 6 30 -15 30 -8 0 -14 7
-14 16 0 8 -4 13 -9 9 -5 -3 -12 -1 -16 5 -9 15 -34 12 -52 -5 -8 -8 -19 -12
-25 -9 -7 4 -8 2 -4 -4 4 -7 1 -12 -8 -12 -9 0 -16 -5 -16 -11 0 -5 6 -7 13
-3 6 4 8 3 4 -1 -18 -20 -32 -11 -32 19 0 17 3 34 8 37 4 3 -8 5 -26 5 -37 -1
-40 -18 -9 -43 9 -7 11 -13 5 -13 -7 0 -14 4 -18 10 -3 5 -12 7 -20 4 -9 -4
-16 3 -21 20 -7 30 -34 34 -58 10 -16 -16 -21 -9 -17 24 3 17 -7 15 -31 -8
-19 -18 -23 -18 -38 -5 -24 21 -40 18 -41 -7 -1 -17 -2 -19 -6 -5 -2 9 -7 17
-9 17 -10 0 -46 -39 -62 -68 -9 -17 -35 -50 -58 -74 -22 -24 -49 -57 -59 -75
-10 -18 -30 -36 -44 -41 -31 -11 -102 -74 -104 -93 -4 -22 -18 -40 -27 -34
-11 7 -21 -21 -14 -40 4 -8 1 -15 -4 -15 -40 0 -33 -181 10 -258 14 -26 16
-33 5 -29 -25 10 -27 -4 -4 -28 130 -138 1035 -165 1451 -43 100 29 139 55
144 98 2 20 1 22 -7 10 -12 -17 -15 -1 -5 25 6 13 9 14 16 3 8 -10 9 -9 5 4
-3 9 1 40 9 70 12 48 12 78 -2 146 -2 13 -9 20 -14 17 -6 -3 -10 -1 -10 5 0 7
-7 9 -16 6 -9 -3 -12 -2 -9 5 4 6 14 8 22 4 14 -5 14 -3 0 17 -8 13 -20 22
-26 20 -6 -1 -11 2 -11 7 0 5 -7 17 -16 25 -8 9 -11 16 -5 16 5 0 14 -8 20
-17 5 -10 12 -15 16 -11 4 3 -3 15 -14 25 -12 10 -30 26 -41 36 -11 9 -23 17
-27 17 -5 0 -25 20 -47 45 -21 25 -45 45 -54 45 -8 0 -13 3 -10 6 3 3 -11 23
-33 45 -21 21 -35 39 -32 39 3 0 -2 9 -12 20 -10 11 -22 17 -27 14 -4 -3 -7
-2 -6 3 4 16 -23 53 -39 53 -9 0 -22 8 -29 18 -9 12 -13 13 -14 3 0 -7 -6 -11
-15 -7 -8 3 -15 0 -15 -6 0 -7 -4 -7 -13 1 -8 6 -16 8 -19 6 -3 -3 -35 -7 -72
-8 -55 -2 -70 1 -84 16 -9 11 -17 22 -17 26 0 3 -3 5 -7 4 -5 -2 -8 4 -8 12 0
18 -26 20 -33 3 -4 -9 -8 -9 -14 -3 -14 17 -44 15 -41 -4z"/>
</g>
</svg>
